# xmcd
#
# Track frame offsets: 
#        150
#        9972
#        19297
#        29917
#        38462
#        51877
#        61040
#        71387
#        84600
#        95982
#
# Disc length: 1448 seconds
#
# Revision: 0
# Processed by: cddbd v1.5.1PL0 Copyright (c) Steve Scherf et al.
# Submitted via: ExactAudioCopy v0.95a5
#
DISCID=7c05a60a
DTITLE=Village Singers - Sunday Is Fathers Day
DYEAR=1998
DGENRE=Bluegrass
TTITLE0=Sunday Is Fathers Day
TTITLE1=When the Battle is Over
TTITLE2=Children Talk To Angels
TTITLE3=Grandma's Rocking Chair
TTITLE4=Eastern Gate
TTITLE5=He Set Me Free
TTITLE6=Where the Roses Never Fade
TTITLE7=Lifes Railway to Heaven
TTITLE8=Build My Mansion Next Door to Jesus
TTITLE9=He Took Your Place
EXTD=
EXTT0=
EXTT1=
EXTT2=
EXTT3=
EXTT4=
EXTT5=
EXTT6=
EXTT7=
EXTT8=
EXTT9=
PLAYORDER=
